<mxfile host="65bd71144e">
    <diagram id="HIP3nbAZw_EuaXWnEj3U" name="Page-1">
        <mxGraphModel dx="1086" dy="706" grid="1" gridSize="10" guides="1" tooltips="1" connect="1" arrows="1" fold="1" page="1" pageScale="1" pageWidth="850" pageHeight="1100" math="0" shadow="0">
            <root>
                <mxCell id="0"/>
                <mxCell id="1" parent="0"/>
                <mxCell id="7" value="http://ics2o.mths.ca" style="swimlane;whiteSpace=wrap;html=1;" parent="1" vertex="1">
                    <mxGeometry x="45" y="60" width="760" height="480" as="geometry"/>
                </mxCell>
                <mxCell id="8" value="&lt;span style=&quot;font-size: 24px;&quot;&gt;Museum prices for day depending on age, in JS&lt;/span&gt;" style="text;html=1;align=center;verticalAlign=middle;resizable=0;points=[];autosize=1;strokeColor=none;fillColor=none;" vertex="1" parent="7">
                    <mxGeometry x="100" y="30" width="530" height="40" as="geometry"/>
                </mxCell>
                <mxCell id="9" value="Enter age" style="text;html=1;align=center;verticalAlign=middle;resizable=0;points=[];autosize=1;strokeColor=none;fillColor=none;" vertex="1" parent="7">
                    <mxGeometry y="90" width="80" height="30" as="geometry"/>
                </mxCell>
                <mxCell id="10" value="_________________" style="text;html=1;align=center;verticalAlign=middle;resizable=0;points=[];autosize=1;strokeColor=none;fillColor=none;" vertex="1" parent="7">
                    <mxGeometry y="110" width="140" height="30" as="geometry"/>
                </mxCell>
                <mxCell id="11" value="Select the day of the week" style="text;html=1;align=center;verticalAlign=middle;resizable=0;points=[];autosize=1;strokeColor=none;fillColor=none;" vertex="1" parent="7">
                    <mxGeometry y="150" width="170" height="30" as="geometry"/>
                </mxCell>
                <mxCell id="15" style="edgeStyle=none;html=1;entryX=0.406;entryY=0.156;entryDx=0;entryDy=0;entryPerimeter=0;" edge="1" parent="7">
                    <mxGeometry relative="1" as="geometry">
                        <mxPoint x="25" y="220" as="sourcePoint"/>
                        <mxPoint x="25" y="220" as="targetPoint"/>
                    </mxGeometry>
                </mxCell>
                <mxCell id="20" value="- Sunday&lt;div&gt;&lt;font color=&quot;#000000&quot;&gt;&lt;br&gt;&lt;/font&gt;&lt;div&gt;- Monday&lt;/div&gt;&lt;div&gt;&lt;br&gt;&lt;/div&gt;&lt;div&gt;- Tuesday&lt;/div&gt;&lt;div&gt;&lt;br&gt;&lt;/div&gt;&lt;div&gt;- Wednesday&lt;/div&gt;&lt;div&gt;&amp;nbsp;&lt;/div&gt;&lt;div&gt;- Thursday&lt;/div&gt;&lt;div&gt;&amp;nbsp;&lt;/div&gt;&lt;div&gt;- Friday&lt;/div&gt;&lt;div&gt;&lt;br&gt;&lt;/div&gt;&lt;div&gt;- Saturday&lt;/div&gt;&lt;div&gt;&lt;br&gt;&lt;/div&gt;&lt;/div&gt;" style="text;html=1;align=center;verticalAlign=middle;resizable=0;points=[];autosize=1;strokeColor=none;fillColor=none;" vertex="1" parent="7">
                    <mxGeometry y="180" width="100" height="210" as="geometry"/>
                </mxCell>
                <mxCell id="21" value="" style="shape=image;verticalLabelPosition=bottom;labelBackgroundColor=default;verticalAlign=top;aspect=fixed;imageAspect=0;image=data:image/jpeg,/9j/4AAQSkZJRgABAQAAAQABAAD/2wCEAAkGBxIQERAQEBISEQ8VEBIQEBYOGBYQDxUPGBIWGBYSExUYHCggGBolHRMXITEhJSkrLi4uFx8zODMuNygtLisBCgoKDg0OGBAQFjAdHyUtNy0rKzQrNS8tLi0tLTctKy0rLSsuKys3NzctNy0tLS0tMS0tKystLTMrLS0rKys3Lv/AABEIAOEA4QMBIgACEQEDEQH/xAAbAAEAAgMBAQAAAAAAAAAAAAAABQYDBAcBAv/EAEYQAAIBAgEFCgwDBgYDAAAAAAABAgMREgQFITFRBhUjQVNhcZGx0RMUIjIzUmJyc6GywUKB4SQ0gpLC8BYXVHSz0kOTw//EABcBAQEBAQAAAAAAAAAAAAAAAAABAgP/xAAiEQEBAQABAwQDAQAAAAAAAAAAARECEiExAyJRYUGB0UL/2gAMAwEAAhEDEQA/AO4gAAAAAAAAAAAAAAAAAAAAAAAAAAAAAAAAAAAAAAAAAAAAAAAAAAAAAAAAGtl2XU6McVSVlxLXJvYlxgbINLN2c6ddXg9PHGWia6Vs5zdAAAAAAAAAAAAAAAAAAAAAAAAAAAAAAAAAA18ty2FGOKpJJcW1vYlxlPztn6pWvGF4U9i86XvP7L5hNTWd90cKd4UrTqam/wAEe9lVq1J1pOU25S43Li5ls6EfeT5I3r/vpJKlRUf77CM6iXGdOSlFtNPQ46Giy5o3Sp2hX0PUprzX7y4unV0GjUpqRHZRkdtX6A10KMr6VpWtW1WPShZrzxUyd286HHCWr+F8Rcc3Zyp11eD0/ii9E10r7lalbgACgAAAAAAAAAAAAAAAAAAAAAAYMsyuFKOKpJRXFtb2JcbAzkHnfdFCleFK06mq/wCCL53xvmRC52z/ADrXhC8KerR58lzv7I0MnyNvX/fSGbXzWq1K8sU5OT2vUuZLi6EbmT5Glpf6/obFKiomQiPErHoAA8aPQBq5Rkilq/U0LTpSUotpp6HHQ0TJ8VKSkBvZo3SqVoV7RlqU1oi/eXF06ugsad9K1cVjnuU5HbV+hmzXnipk7w+dT44S4vdfF2FWVfQaebs5U68bwen8UXokulfc3A0AAAAAAAAAAAAAAAAxZTlEacXObwxVrt87stXSaW/2TcquqXcbWX5JGtCVOd1F2vh0PQ0/sVDPGZ/AztBTdOytKWnytOi9uYJUznHdNTguB4Sb1a1BdN9fQVXKspnWliqSu+fUlsS4ke+LczHi3MyM6y5P4NaXLT+d/wBDbWV01+JdTI/xbmY8W5mBI+OU/W7R45T9btI7xbmY8W5mBI+OU/W7R45T9btI7xbmY8W5mBI+OU/W7R45T9btI7xbmY8W5mBI+OU/W7R45T9btI7xbmY8W5mBIPK6frLqZq5Q6b1S7b/kYfFuZjxbmYGOFR05KUJNNanHQyz5q3TRaw1/Jl66XkvpS1P+9BXPFuZjxbmYNXXf7JuVXVLuNrI8shWTlTkpJOztdabX4+kpWbs2OrOMXGeC6xuPEnx3sXHNmboZPFxg5NOWJ42m72S4kthWpW4AAoAAAAAAAAAABrZfknhYqLdrO+q/E+82T5q3s8NsVna+q/OBTcsmqbaVpWk47NTPitXUUrJO5iyrBjnixYscsVrWxYne3MY+D9v5EYbNauo2sk7itXUbWSdzW4P2/kOD9v5AbVasotJJO4q1kmlZO/H+Zq8H7fyHB+38gNqpXSklZNO2nZpPJ10pKNlbRpNbg/b+Q4P2/kBtOssSjZW2h1liw2Vtv5Grwft/IcH7fyA2vDrFhsrbfyCrrFhsrbTV4P2/kOD9v5AbUaycnGyttPIV05ONkkr6fzNbg/b+Q4P2/kBtU66cmrJWvp/M8pV0200lb5mtwft/IcH7fyAuWbchVK7TviUeK23vN4wZG5YI47Xt+HVbiM5WwAAAAAAAAAAAAAPislhli82zvxaOM+z5qQUk09TTT6AKfWhByk4pOOJ2fNfnI7PUZqjJ0Vwmh3TV1FaZNJ69C1Etl+Q4JuNnhTvHVpT4yLzpWdKKS0SldK9naPHa3T8yMKbvxX5V9Ue4b71+UfVHuNfdDnutk8qcaTiouDbxRT1OxoZDumympUhBuGByUZeRFXT2Gum5qbNxddzFarVc5VPLp2wxbwry9D0Lj0MsHg4+qiuZiyh06vgXppzbdPR5Sq6NF9lkyx+Aw6bPQm35uq2njMqqOe8sr0q0kpOEH5VNLDJYNV07cxH771+UfVHuPc75e69Ry/ArxppK1oXdr87K9nfOtWlKMYNJYb6UnxlFg33r8o+qPcZ8iy/Kak4whNyberyUrLS7u2hWKhkWe686kItxwuST8lIsWSZXKlNVIWxK+vSndWaa2aRZg6IoR9VdZEbpZVIU1KisOF3qNWbUdS0Piu9ZJ5OlVhCpFPDKKcdS0dDZBbq8ucEqEdDlG9S604LrCk78zIILfevyj6o9w33r8o+qPcVvOeea1OpKMZRwpLXFPiPc154rVKijJrDZ6kk9Rc7afTpW5qVSdNyrLEpO9NuybjqehcV0S/g47EV7cnlzmnQlpcY3p2WnBd4k3zXXWWWhkbckknp0abW7SC05CoYI+D83i16+PWbBiyagqcVCOpGUrYAAAAAAAAAAAAAAACEzv6T+FdpVd0v/AIv4/wCktOdvSfwoq+6bVS/j/oIxXON2KXhKV9WB9pEZrnetStqxx7SY3YVHGpSs7eQ/z0kRmyvJ1qSvo8JHRo2nWb0Odzrn6dMzUuGp+9f5MtVVeTLofYyrZn9NT6X9LLW1e6/vUzk6OTxIDdCvLjf1fuWBxa0PQ1rIDdBNqpHTbyfuXj5S+K0s2yvWp21Yi2FUzdVbq01fRiRay8vJx8OkZgX7NQ+HEqu7RftK+DDtkWvMS/Zsn+FDsKru2X7RD4EPrmZVzrPSXhpN7I9gzG71lstLsGeqjVaWniXYe5kqN1o3fFLsN9+lnt1Oh7i/3l/Cl9UDoOb/AEkOn7I5/uJX7RL4MvrgX/IPSQ6V9jDSxAArYAAAAAAAAAAAAAAACCzt6V9CKzul1UumfZEs2dfSvoXYit7pfNpe9LsRGKr88hU7OVNS0aG430Hkc2JaVSSevRFFb3WZZUhOmoVJwWB3wtq+kjc25fXlVpJ1amHHFWcnp08Zro2anXlx0bM8eHgnr8r6JFqWsq2ZPTw/j+iRaY610mVc7y7JcSxLzkutELlbpQtKvKEb6semTXMtZZp1VTjVqyV40qc6rW3Cr2OcV71IzyipJSq1FKcno0XTsoriRZN7JeU4zan8klQqPgZU5SWmyWGfSk1c2Cn0YJ04yTw1Fpi1okmnoLXkWU+Go0qr86UWpW0eVFtN/nYmZi7u/TqGZf3fJ/g0/pRVd264en8CP1zLZmhfs+T/AAKX0RKru5XDUvgr65gVuWRp6XBN86uI5Gk7qCT5lYr2eMrqRqySnNKy0JvYfWZspqSqpSnJqz0Nu2ovT206vw6DuHXDz+C/+SBfMh9JD3l9ii7hlw1T4X/0gXrIvSQ95fYgsYAK2AAAAAAAAAAAAAAAAgc6ell+XYiu7pfMp++/pRYs5+ll+XYivbpPR0/ff0kYrmu66DdSm0m7QepX4yJzZTn4ak3GSSqR1prjJbddQlKdPDGUrQfmpta+Mis2ZNUVak3CaSnG7aaSOkvt8sWe+dvh07MPp49E/oZaI610lYzB6Ze7P6WWeOtdJzbUHO/7tlv+2rfSylUc2QdGM3HS6SlfTrw3uXbPX7vl3+3r9jK9krj4rHylfxdcavfwZ09KS278OXrXlOMy/lX8nzdF04Tcb4k3fTruyZzF+60veq/8jMuZ4weTU1Jx8162r62Y8yRayWlf1qtv/Yyc5JOOfDXDlbee/P8AXW82LgaHwaX0RKru6XC0fhf1stmQrgqXwqf0Iqu7pcJQ+HL6jDbmmeYvw0mk3oWpN8R5mSEvDRbTWiWtW4j3PNGTrSajJ6FqTa1DMlGSrJuMkrS0tNLUb/yme7w6TuG9LV+GvrRd8j8+HvR7UUrcL6St7kPrLpkvnw95fYwqygArYAAAAAAAAAAAAAHknZN81z0+avmvofYBU8ozjjk5YdfYRueJ+Ep7MLxLqsZ1TW35HzVydSi44rXVtRGFaBMbzx5R/wAv6jeePKP+X9QMWY1aTqbFhS6VpJtZbzGlkmRRpprG3d31WM/g1t+QFX3RU8NHLktTyarLrizkp3POWaI1oVoOo4+EpSpO0b2TVr6yqf5Z0v8AVT/kX/Yxz42uvp8pJ3c3Z0Xcvkiq5Fk0HovUraVrXCyuff8AlnS/1U/5F/2LJmXMEcmpUqSquapynK7ja+KTlqvzk48bKepzlnZM0spUYxja6UVFX12St9iA3Yw8JCFXU4PBbiak+29ic8GtvyNXOOb41oODm46U7pX1HRyUEFo/wpDlpfyfqP8ACkOWl/J+oGTcfT8HCdXW5+TbiSi9fTe5Y4ZdZppamn/fUR+bs3xo01TU3Kzbu1bW7mz4NbfkBc8lrY4QnqxRTMpq5s9DT9xG0VsAAAAAAAAAAAAACFzxlkZxwRviU9N1ZaLpm1ledFTm4OLdrab7Vcr9W7lJ3teTfWwlr5u9iF3sQwvaML2kZLvYhd7EML2jC9oC72IXexDC9owvaAu9iF3sQwvaML2gLvYhd7EML2jC9oC72IXexDC9owvaAu9iF3sQwvaML2gLvYhd7EML2jC9oElmjLI08ePRe1radVyfTKdhe0nsnzspOMML0tRvf8irKlAAGgAAAAAAAAAAROX5odSpKamle2i19SttNfeCXKLqfeTwCYgd4Jcoup943glyi6n3k8AYgd4Jcoup943glyi6n3k8AYgd4Jcoup943glyi6n3k8AYgd4Jcoup943glyi6n3k8AYgd4Jcoup943glyi6n3k8AYgd4Jcoup943glyi6n3k8AYgd4Jcoup943glyi6n3k8AYgd4Jcoup943glyi6n3k8AYgd4Jcoup95kybMkoTjLGnaSdrPifSTQBgAAoAAAAAAAAAAAAAAAAAAAAAAAAAAAAAAAAAAAAAAAAAAAAAAAAAAAAAAAAAAAAAAAAAAAAAAAAAAAAAAAAAAAAA//9k=;" vertex="1" parent="7">
                    <mxGeometry x="515" y="80" width="225" height="225" as="geometry"/>
                </mxCell>
                <mxCell id="23" value="Tell me the price" style="whiteSpace=wrap;html=1;" vertex="1" parent="7">
                    <mxGeometry x="20" y="390" width="180" height="40" as="geometry"/>
                </mxCell>
                <mxCell id="17" style="edgeStyle=none;html=1;" edge="1" parent="1">
                    <mxGeometry relative="1" as="geometry">
                        <mxPoint x="110" y="360" as="sourcePoint"/>
                        <mxPoint x="110" y="360" as="targetPoint"/>
                    </mxGeometry>
                </mxCell>
            </root>
        </mxGraphModel>
    </diagram>
</mxfile>